# xmcd
#
# Track frame offsets: 
#        182
#        25302
#        45915
#        71267
#        91755
#        123050
#        146567
#
# Disc length: 2246 seconds
#
# Revision: 0
# Processed by: cddbd v1.5.2PL0 Copyright (c) Steve Scherf et al.
# Submitted via: ExactAudioCopyFreeDBPlugin 1.0
#
DISCID=4c08c407
DTITLE=Tony! Toni! Toné! - Coolin' At Christmas With 3T [CDM Promo)
DYEAR=1990
DGENRE=Funk
TTITLE0=My Christmas (Yuletide Mix)
TTITLE1=Oakland Stroke (UPSO Mix)
TTITLE2=Oakland Stroke (Brixton Mix)
TTITLE3=Oakland Stroke  (Environmental Mix)
TTITLE4=Feels Good (House Mix)
TTITLE5=My Christmas (The Other Mix)
TTITLE6=My Christmas (Cool Out  Mix)
EXTD=
EXTT0=
EXTT1=
EXTT2=
EXTT3=
EXTT4=
EXTT5=
EXTT6=
PLAYORDER=
